<svg xmlns="http://www.w3.org/2000/svg" viewBox="0 0 900 600" preserveAspectRatio="xMidYMid slice"><defs><linearGradient id="g" x1="0" y1="0" x2="0" y2="1"><stop offset="0" stop-color="#4179bb"/><stop offset="1" stop-color="#000000"/></linearGradient></defs><rect width="900" height="600" fill="url(#g)"/><g fill="#ffffff" opacity="0.08"><rect x="-30" y="444" width="35" height="196"/><rect x="-16" y="426" width="6" height="70"/><rect x="10" y="425" width="56" height="215"/><rect x="73" y="425" width="74" height="215"/><rect x="104" y="401" width="12" height="70"/><rect x="157" y="510" width="69" height="130"/><rect x="186" y="459" width="11" height="70"/><rect x="236" y="497" width="80" height="143"/><rect x="330" y="492" width="35" height="148"/><rect x="369" y="439" width="55" height="201"/><rect x="429" y="505" width="30" height="135"/><rect x="464" y="453" width="62" height="187"/><rect x="531" y="509" width="51" height="131"/><rect x="590" y="470" width="69" height="170"/><rect x="675" y="466" width="49" height="174"/><rect x="733" y="390" width="78" height="250"/><rect x="766" y="341" width="13" height="70"/><rect x="822" y="458" width="48" height="182"/><rect x="881" y="431" width="62" height="209"/></g><g fill="#ffffff" opacity="0.14"><rect x="-30" y="319" width="70" height="321"/><rect x="55" y="369" width="85" height="271"/><rect x="90" y="323" width="14" height="70"/><rect x="147" y="386" width="70" height="254"/><rect x="220" y="446" width="97" height="194"/><rect x="324" y="463" width="77" height="177"/><rect x="415" y="432" width="94" height="208"/><rect x="525" y="304" width="96" height="336"/><rect x="634" y="420" width="56" height="220"/><rect x="705" y="479" width="99" height="161"/><rect x="807" y="425" width="96" height="215"/><rect x="912" y="465" width="82" height="175"/></g><g fill="#ffffff" opacity="0.22"><rect x="-30" y="420" width="129" height="220"/><rect x="114" y="209" width="122" height="431"/><rect x="165" y="163" width="20" height="70"/><rect x="250" y="354" width="114" height="286"/><rect x="298" y="332" width="19" height="70"/><rect x="369" y="245" width="85" height="395"/><rect x="466" y="293" width="53" height="347"/><rect x="526" y="397" width="81" height="243"/><rect x="560" y="346" width="13" height="70"/><rect x="622" y="441" width="56" height="199"/><rect x="685" y="350" width="91" height="290"/><rect x="785" y="338" width="110" height="302"/><rect x="902" y="440" width="104" height="200"/></g></svg>